HIERARCHY
ROOT Hips
{
    OFFSET   0.000000   0.000000   0.000000
    CHANNELS 6 Xposition Yposition Zposition Zrotation Xrotation Yrotation
    JOINT Chest
    {
        OFFSET   0.000000   8.007230   0.000000
        CHANNELS 3 Zrotation Xrotation Yrotation
        JOINT Chest2
        {
            OFFSET   0.000000  22.077100   0.000000
            CHANNELS 3 Zrotation Xrotation Yrotation
            JOINT Neck
            {
                OFFSET   0.000000  23.255100   0.000000
                CHANNELS 3 Zrotation Xrotation Yrotation
                JOINT Head
                {
                    OFFSET   0.000000  14.370100   1.956600
                    CHANNELS 3 Zrotation Xrotation Yrotation
                    End Site
                    {
                        OFFSET   0.000000  19.566000   0.000000
                    }
                }
            }
            JOINT LeftCollar
            {
                OFFSET   3.911900  19.017000  -0.467063
                CHANNELS 3 Zrotation Xrotation Yrotation
                JOINT LeftShoulder
                {
                    OFFSET  10.383700   0.000000   0.000000
                    CHANNELS 3 Zrotation Xrotation Yrotation
                    JOINT LeftElbow
                    {
                        OFFSET  26.662100   0.001193   0.000980
                        CHANNELS 3 Zrotation Xrotation Yrotation
                        JOINT LeftWrist
                        {
                            OFFSET  28.869000  -0.000059  -0.000082
                            CHANNELS 3 Zrotation Xrotation Yrotation
                            JOINT LeftFinger0
                            {
                                OFFSET   2.044650  -2.323450   3.252850
                                CHANNELS 3 Zrotation Xrotation Yrotation
                                JOINT LeftFinger01
                                {
                                    OFFSET   3.088130   0.000000   0.000000
                                    CHANNELS 3 Zrotation Xrotation Yrotation
                                    JOINT LeftFinger02
                                    {
                                        OFFSET   2.639460   0.000000   0.000000
                                        CHANNELS 3 Zrotation Xrotation Yrotation
                                        End Site
                                        {
                                            OFFSET   2.582190   0.000000   0.000000
                                        }
                                    }
                                }
                            }
                            JOINT LeftFinger1
                            {
                                OFFSET   8.364480   0.000000   3.252850
                                CHANNELS 3 Zrotation Xrotation Yrotation
                                JOINT LeftFinger11
                                {
                                    OFFSET   4.646930   0.000000   0.000000
                                    CHANNELS 3 Zrotation Xrotation Yrotation
                                    JOINT LeftFinger12
                                    {
                                        OFFSET   2.323470   0.000000   0.000000
                                        CHANNELS 3 Zrotation Xrotation Yrotation
                                        End Site
                                        {
                                            OFFSET   2.273050   0.000000   0.000000
                                        }
                                    }
                                }
                            }
                            JOINT LeftFinger2
                            {
                                OFFSET   8.364490   0.000016   1.078090
                                CHANNELS 3 Zrotation Xrotation Yrotation
                                JOINT LeftFinger21
                                {
                                    OFFSET   5.111610   0.000000   0.000000
                                    CHANNELS 3 Zrotation Xrotation Yrotation
                                    JOINT LeftFinger22
                                    {
                                        OFFSET   2.788150   0.000016   0.000000
                                        CHANNELS 3 Zrotation Xrotation Yrotation
                                        End Site
                                        {
                                            OFFSET   2.727660   0.000000   0.000000
                                        }
                                    }
                                }
                            }
                            JOINT LeftFinger3
                            {
                                OFFSET   7.899780   0.000015  -1.078090
                                CHANNELS 3 Zrotation Xrotation Yrotation
                                JOINT LeftFinger31
                                {
                                    OFFSET   4.646930   0.000000   0.000000
                                    CHANNELS 3 Zrotation Xrotation Yrotation
                                    JOINT LeftFinger32
                                    {
                                        OFFSET   2.323470   0.000000   0.000000
                                        CHANNELS 3 Zrotation Xrotation Yrotation
                                        End Site
                                        {
                                            OFFSET   2.273050   0.000000   0.000000
                                        }
                                    }
                                }
                            }
                            JOINT LeftFinger4
                            {
                                OFFSET   7.435090   0.000000  -3.252850
                                CHANNELS 3 Zrotation Xrotation Yrotation
                                JOINT LeftFinger41
                                {
                                    OFFSET   3.717550   0.000000   0.000000
                                    CHANNELS 3 Zrotation Xrotation Yrotation
                                    JOINT LeftFinger42
                                    {
                                        OFFSET   1.858770   0.000000   0.000000
                                        CHANNELS 3 Zrotation Xrotation Yrotation
                                        End Site
                                        {
                                            OFFSET   1.818440   0.000000   0.000000
                                        }
                                    }
                                }
                            }
                        }
                    }
                }
            }
            JOINT RightCollar
            {
                OFFSET  -3.911910  19.017000  -0.467062
                CHANNELS 3 Zrotation Xrotation Yrotation
                JOINT RightShoulder
                {
                    OFFSET -10.383700   0.000014   0.000000
                    CHANNELS 3 Zrotation Xrotation Yrotation
                    JOINT RightElbow
                    {
                        OFFSET -26.662100   0.001225   0.001091
                        CHANNELS 3 Zrotation Xrotation Yrotation
                        JOINT RightWrist
                        {
                            OFFSET -28.869000  -0.000020  -0.000085
                            CHANNELS 3 Zrotation Xrotation Yrotation
                            JOINT RightFinger0
                            {
                                OFFSET  -2.044650  -2.323490   3.252850
                                CHANNELS 3 Zrotation Xrotation Yrotation
                                JOINT RightFinger01
                                {
                                    OFFSET  -3.088130   0.000000   0.000000
                                    CHANNELS 3 Zrotation Xrotation Yrotation
                                    JOINT RightFinger02
                                    {
                                        OFFSET  -2.639460   0.000000   0.000000
                                        CHANNELS 3 Zrotation Xrotation Yrotation
                                        End Site
                                        {
                                            OFFSET  -2.582190   0.000000   0.000000
                                        }
                                    }
                                }
                            }
                            JOINT RightFinger1
                            {
                                OFFSET  -8.364480   0.000000   3.252850
                                CHANNELS 3 Zrotation Xrotation Yrotation
                                JOINT RightFinger11
                                {
                                    OFFSET  -4.646930   0.000000   0.000000
                                    CHANNELS 3 Zrotation Xrotation Yrotation
                                    JOINT RightFinger12
                                    {
                                        OFFSET  -2.323470   0.000000   0.000000
                                        CHANNELS 3 Zrotation Xrotation Yrotation
                                        End Site
                                        {
                                            OFFSET  -2.273050   0.000000   0.000000
                                        }
                                    }
                                }
                            }
                            JOINT RightFinger2
                            {
                                OFFSET  -8.364480   0.000000   1.078090
                                CHANNELS 3 Zrotation Xrotation Yrotation
                                JOINT RightFinger21
                                {
                                    OFFSET  -5.111620   0.000000   0.000000
                                    CHANNELS 3 Zrotation Xrotation Yrotation
                                    JOINT RightFinger22
                                    {
                                        OFFSET  -2.788160   0.000000   0.000000
                                        CHANNELS 3 Zrotation Xrotation Yrotation
                                        End Site
                                        {
                                            OFFSET  -2.727660   0.000000   0.000000
                                        }
                                    }
                                }
                            }
                            JOINT RightFinger3
                            {
                                OFFSET  -7.899780   0.000000  -1.078090
                                CHANNELS 3 Zrotation Xrotation Yrotation
                                JOINT RightFinger31
                                {
                                    OFFSET  -4.646930   0.000000   0.000000
                                    CHANNELS 3 Zrotation Xrotation Yrotation
                                    JOINT RightFinger32
                                    {
                                        OFFSET  -2.323470   0.000000   0.000000
                                        CHANNELS 3 Zrotation Xrotation Yrotation
                                        End Site
                                        {
                                            OFFSET  -2.273050   0.000000   0.000000
                                        }
                                    }
                                }
                            }
                            JOINT RightFinger4
                            {
                                OFFSET  -7.435090   0.000000  -3.252850
                                CHANNELS 3 Zrotation Xrotation Yrotation
                                JOINT RightFinger41
                                {
                                    OFFSET  -3.717550   0.000000   0.000000
                                    CHANNELS 3 Zrotation Xrotation Yrotation
                                    JOINT RightFinger42
                                    {
                                        OFFSET  -1.858760   0.000000   0.000000
                                        CHANNELS 3 Zrotation Xrotation Yrotation
                                        End Site
                                        {
                                            OFFSET  -1.818440   0.000000   0.000000
                                        }
                                    }
                                }
                            }
                        }
                    }
                }
            }
        }
    }
    JOINT LeftHip
    {
        OFFSET   9.783030   0.000000   0.000000
        CHANNELS 3 Zrotation Xrotation Yrotation
        JOINT LeftKnee
        {
            OFFSET   0.000063 -41.789100   0.000608
            CHANNELS 3 Zrotation Xrotation Yrotation
            JOINT LeftAnkle
            {
                OFFSET   0.000048 -41.133200  -0.000184
                CHANNELS 3 Zrotation Xrotation Yrotation
                JOINT LeftToe
                {
                    OFFSET   0.000000  -6.358960  14.674500
                    CHANNELS 3 Zrotation Xrotation Yrotation
                    End Site
                    {
                        OFFSET   0.000000   0.000000   3.913200
                    }
                }
            }
        }
    }
    JOINT RightHip
    {
        OFFSET  -9.783030   0.000000   0.000000
        CHANNELS 3 Zrotation Xrotation Yrotation
        JOINT RightKnee
        {
            OFFSET   0.000071 -41.789100   0.001239
            CHANNELS 3 Zrotation Xrotation Yrotation
            JOINT RightAnkle
            {
                OFFSET   0.000037 -41.133200  -0.000166
                CHANNELS 3 Zrotation Xrotation Yrotation
                JOINT RightToe
                {
                    OFFSET   0.000000  -6.358960  14.674500
                    CHANNELS 3 Zrotation Xrotation Yrotation
                    End Site
                    {
                        OFFSET   0.000000   0.000000   3.913200
                    }
                }
            }
        }
    }
}
MOTION
Frames: 6
Frame Time:   0.016667
  0.648619  89.567600  -0.383537  -2.864730  -8.127090  -5.147320   0.761053   3.151790  -0.126869   1.532580   6.301610  -0.296405   1.507170   0.803021  -0.023975   2.477500   1.625210   2.149470  -3.233460  -0.583847  -0.431840 -76.689500  17.026900   1.561210  -1.574870  -8.588790 -12.587900  16.501300 -15.954500   8.280460  39.121500  33.520800 -68.204700 -30.323600   0.003575   0.002136 -10.161800   0.002747   0.003650 -28.412500   3.822550  -7.025300 -23.438700  -0.007259  -0.000368 -16.395900  -0.005068  -0.013626 -28.221000  -0.904030   1.683460 -33.731600  -0.001718  -0.002520 -22.465200  -0.007611  -0.003393 -27.937900  -0.895488   1.688020 -31.687500  -0.001281   0.003909 -21.103800  -0.004975   0.002379 -29.698900  -0.946957   1.659710 -44.569000  -0.011776  -0.003485 -29.683000  -0.002799  -0.002495   9.613360   0.176966   4.465220  71.106500  10.254500  -4.723220  -1.009190  -6.615610   9.053260 -12.697000  -3.845960  -0.115264 -36.065600  26.455600  60.382100  30.920800  -0.004032   0.001550  10.467700  -0.002327   0.001054  29.765600   6.147930  10.606400  24.821100  -0.001580  -0.003760  17.374700   0.005561  -0.000630  28.544600   2.095210   3.843720  37.740100   0.007640   0.003770  25.135000  -0.000984   0.001237  28.024200   0.934711   1.755510  32.254200  -0.001628   0.000275  21.481300   0.002683  -0.000112  33.905400   0.487046   0.724741  50.852800  -0.008324   0.000284  33.874600   0.001495   0.001064   0.932737  10.046100   3.464160   1.233300   0.055527   4.543620  -0.026754  -2.978320   2.642190  -0.000000   0.000000  -0.000000   4.470810   7.020750  -2.221910  -2.119680   5.137330  -7.600510   0.014454  -5.322920  -0.882431   0.000000   0.000000   0.000000
  0.662190  89.567600  -0.369487  -2.870720  -8.142460  -5.153460   0.765285   3.167890  -0.128117   1.541210   6.333780  -0.299532   1.516100   0.819821  -0.023897   2.492210   1.658970   2.124110  -3.241210  -0.572996  -0.428608 -76.680400  17.051900   1.500740  -1.563600  -8.625160 -12.572000  16.505100 -15.937100   8.255920  39.130700  33.521800 -68.206900 -30.309800   0.003575   0.002145 -10.155000   0.002746   0.003655 -28.406300   3.828510  -7.038280 -23.434200  -0.007255  -0.000367 -16.396000  -0.005072  -0.013633 -28.221600  -0.892485   1.662200 -33.708900  -0.001714  -0.002520 -22.450100  -0.007608  -0.003394 -27.934000  -0.884032   1.666700 -31.660600  -0.001276   0.003908 -21.085900  -0.004976   0.002379 -29.680200  -0.934555   1.638930 -44.540500  -0.011775  -0.003485 -29.664000  -0.002799  -0.002495   9.633810   0.139614   4.484610  71.057500  10.227500  -4.710280  -1.006180  -6.722190   9.021830 -12.686700  -3.855050  -0.109230 -36.070300  26.483700  60.405800  30.926800  -0.004030   0.001543  10.468100  -0.002329   0.001053  29.765400   6.146080  10.603000  24.820500  -0.001582  -0.003758  17.374300   0.005561  -0.000631  28.545300   2.091330   3.836790  37.736700   0.007632   0.003771  25.132700  -0.000985   0.001236  28.024200   0.934551   1.755200  32.254300  -0.001629   0.000272  21.481400   0.002684  -0.000112  33.904900   0.487046   0.724740  50.854700  -0.008327   0.000283  33.874100   0.001495   0.001064   0.930238  10.076200   3.469010   1.222340   0.043274   4.549310  -0.018057  -2.979510   2.642010  -0.000000   0.000000   0.000000   4.468020   7.056720  -2.222040  -2.124670   5.116770  -7.599430   0.013977  -5.322830  -0.886152  -0.000000   0.000000  -0.000000
  0.685209  89.567700  -0.347028  -2.881480  -8.169430  -5.165360   0.773298   3.194070  -0.129366   1.557460   6.386100  -0.302670   1.532660   0.852653  -0.023819   2.519510   1.725110   2.076330  -3.255120  -0.555430  -0.425375 -76.664400  17.088600   1.392420  -1.542810  -8.688700 -12.544700  16.516900 -15.895900   8.216720  39.145400  33.522800 -68.209000 -30.290100   0.003572   0.002153 -10.145100   0.002746   0.003660 -28.397700   3.834470  -7.051270 -23.427800  -0.007246  -0.000367 -16.396000  -0.005080  -0.013649 -28.222500  -0.877732   1.634920 -33.680600  -0.001703  -0.002521 -22.431300  -0.007604  -0.003398 -27.928100  -0.869321   1.639410 -31.621900  -0.001265   0.003906 -21.060100  -0.004979   0.002379 -29.652700  -0.918267   1.612520 -44.498500  -0.011775  -0.003486 -29.636000  -0.002798  -0.002495   9.670220   0.076495   4.516560  70.963000  10.178700  -4.683100  -0.998727  -6.894410   8.962460 -12.664600  -3.864140  -0.098749 -36.083900  26.531300  60.440800  30.932900  -0.004028   0.001533  10.468500  -0.002331   0.001050  29.761500   6.139470  10.593900  24.816500  -0.001584  -0.003755  17.371500   0.005564  -0.000631  28.546300   2.085310   3.825720  37.719700   0.007616   0.003772  25.121300  -0.000989   0.001234  28.024300   0.933431   1.753070  32.254500  -0.001631   0.000263  21.481500   0.002684  -0.000112  33.901400   0.487047   0.724739  50.856600  -0.008337   0.000283  33.870500   0.001495   0.001064   0.925860  10.123800   3.478540   1.205700   0.029938   4.557560  -0.004372  -2.981830   2.641770   0.000000   0.000000   0.000000   4.463960   7.114130  -2.222270  -2.134290   5.086440  -7.593210   0.013343  -5.322730  -0.891565   0.000000   0.000000   0.000000
  0.704466  89.567700  -0.331100  -2.891450  -8.193520  -5.178350   0.781815   3.213680  -0.126644   1.574480   6.425360  -0.297815   1.548630   0.887986  -0.024258   2.545920   1.796630   2.025500  -3.272100  -0.542147  -0.435824 -76.649200  17.100000   1.291540  -1.523610  -8.745010 -12.521000  16.536300 -15.830400   8.183120  39.155700  33.521300 -68.205400 -30.283600   0.003565   0.002142 -10.141800   0.002739   0.003653 -28.392900   3.834150  -7.050860 -23.425300  -0.007235  -0.000370 -16.395800  -0.005092  -0.013670 -28.222100  -0.874801   1.629410 -33.674900  -0.001682  -0.002521 -22.427600  -0.007598  -0.003404 -27.925000  -0.866336   1.633940 -31.603700  -0.001247   0.003906 -21.048000  -0.004982   0.002377 -29.639600  -0.914670   1.607370 -44.478600  -0.011773  -0.003486 -29.622700  -0.002798  -0.002496   9.706700   0.020497   4.542240  70.860200  10.122200  -4.657250  -0.987938  -7.021230   8.904180 -12.631600  -3.810930  -0.086985 -36.104900  26.570800  60.456000  30.928800  -0.004029   0.001530  10.465600  -0.002333   0.001032  29.746200   6.126190  10.578400  24.802500  -0.001581  -0.003758  17.361700   0.005571  -0.000630  28.546900   2.080630   3.816130  37.682500   0.007595   0.003774  25.096600  -0.000999   0.001232  28.011600   0.868639   1.632660  32.158100  -0.001633   0.000251  21.417300   0.002683  -0.000113  33.883400   0.490638   0.730537  50.832100  -0.008356   0.000283  33.852600   0.001495   0.001063   0.921333  10.154600   3.489990   1.196930   0.029215   4.560960   0.004357  -2.984420   2.641690   0.000000   0.000000  -0.000000   4.463030   7.154870  -2.234210  -2.145850   5.067960  -7.572330   0.013062  -5.322940  -0.894604   0.000000   0.000000  -0.000000
  0.724211  89.567700  -0.316266  -2.902950  -8.219870  -5.193360   0.791013   3.232460  -0.121986   1.592740   6.462940  -0.289457   1.568140   0.931266  -0.025481   2.578190   1.884260   1.970070  -3.282870  -0.530129  -0.446273 -76.634900  17.120800   1.178420  -1.498800  -8.806150 -12.496100  16.564700 -15.764000   8.163190  39.159300  33.522400 -68.199500 -30.275400   0.003559   0.002124 -10.137700   0.002734   0.003646 -28.390500   3.833830  -7.050450 -23.423900  -0.007221  -0.000375 -16.395300  -0.005108  -0.013698 -28.221100  -0.873457   1.626910 -33.673100  -0.001656  -0.002521 -22.426300  -0.007590  -0.003413 -27.923000  -0.864981   1.631440 -31.592000  -0.001224   0.003905 -21.040300  -0.004986   0.002374 -29.628500  -0.913084   1.605000 -44.461900  -0.011769  -0.003486 -29.611600  -0.002797  -0.002497   9.740900  -0.029178   4.565710  70.743300  10.080000  -4.609330  -0.980184  -7.140640   8.829590 -12.601900  -3.716730  -0.079666 -36.132700  26.616600  60.464100  30.920900  -0.004031   0.001526  10.460500  -0.002336   0.000996  29.720000   6.109880  10.561500  24.778900  -0.001576  -0.003761  17.345200   0.005580  -0.000628  28.546900   2.078080   3.810670  37.630500   0.007567   0.003776  25.061900  -0.001012   0.001230  27.998500   0.804795   1.514090  32.061700  -0.001637   0.000234  21.353100   0.002680  -0.000114  33.850800   0.498083   0.742585  50.781100  -0.008381   0.000283  33.820200   0.001496   0.001061   0.916703  10.186400   3.501640   1.189220   0.028492   4.564130   0.013149  -2.987330   2.641680   0.000000   0.000000  -0.000000   4.464430   7.192040  -2.253530  -2.158050   5.059390  -7.544610   0.012947  -5.324140  -0.895955   0.000000   0.000000   0.000000
  0.744491  89.567700  -0.301812  -2.916460  -8.248610  -5.210270   0.800035   3.250210  -0.117852   1.610670   6.498450  -0.281932   1.592470   0.984304  -0.027579   2.618400   1.991420   1.916430  -3.282630  -0.520337  -0.442355 -76.625000  17.178500   1.052160  -1.464840  -8.876220 -12.471200  16.599700 -15.719900   8.164720  39.187800  33.545900 -68.209300 -30.249800   0.003557   0.002102 -10.124800   0.002735   0.003657 -28.389900   3.836010  -7.055610 -23.422100  -0.007203  -0.000377 -16.394400  -0.005126  -0.013733 -28.220400  -0.869667   1.619910 -33.670100  -0.001628  -0.002523 -22.424300  -0.007578  -0.003424 -27.921800  -0.861199   1.624440 -31.583800  -0.001194   0.003904 -21.035500  -0.004993   0.002373 -29.613000  -0.908725   1.598330 -44.438600  -0.011766  -0.003487 -29.596000  -0.002795  -0.002497   9.763820  -0.060713   4.585000  70.618600  10.071900  -4.521700  -0.980728  -7.252240   8.732550 -12.592000  -3.628710  -0.080826 -36.181600  26.684800  60.478600  30.909500  -0.004035   0.001515  10.454700  -0.002340   0.000950  29.681600   6.094750  10.552100  24.745900  -0.001570  -0.003757  17.322100   0.005587  -0.000626  28.542700   2.080570   3.817370  37.560700   0.007531   0.003780  25.015400  -0.001028   0.001226  28.002000   0.910174   1.711330  32.097500  -0.001641   0.000213  21.376900   0.002676  -0.000115  33.806000   0.508117   0.758431  50.714100  -0.008410   0.000282  33.775600   0.001497   0.001059   0.912469  10.227000   3.511940   1.179780   0.019463   4.569690   0.024486  -2.988790   2.643280   0.000000   0.000000   0.000000   4.467300   7.225270  -2.271490  -2.168160   5.061760  -7.519040   0.013938  -5.326760  -0.895345   0.000000   0.000000  -0.000000
